M48
;DRILL file {KiCad 4.0.7} date Fri Nov 23 17:57:01 2018
;FORMAT={-:-/ absolute / inch / decimal}
FMAT,2
INCH,TZ
T1C0.031
T2C0.036
T3C0.039
T4C0.047
%
G90
G05
M72
T1
X4.95Y-4.325
X5.0484Y-4.325
X5.2016Y-4.325
X5.3Y-4.325
X5.425Y-3.325
X5.5037Y-3.325
X5.5825Y-3.325
X5.6612Y-3.325
X6.65Y-2.975
X6.65Y-3.225
X6.7287Y-2.975
X6.7287Y-3.225
X6.8075Y-2.975
X6.8075Y-3.225
X6.8862Y-2.975
X6.8862Y-3.225
X6.965Y-2.975
X6.965Y-3.225
X7.0437Y-2.975
X7.0437Y-3.225
X7.1224Y-2.975
X7.1224Y-3.225
X7.2012Y-2.975
X7.2012Y-3.225
X7.2799Y-2.975
X7.2799Y-3.225
X7.3587Y-2.975
X7.3587Y-3.225
X7.4374Y-2.975
X7.4374Y-3.225
X7.5161Y-2.975
X7.5161Y-3.225
X8.2Y-3.475
X8.2Y-3.575
X8.2Y-3.675
X8.2Y-3.775
X8.2Y-3.875
X8.2Y-3.975
X8.2Y-4.075
X8.2Y-4.175
X8.2Y-4.275
X8.2Y-4.375
X8.5Y-3.475
X8.5Y-3.575
X8.5Y-3.675
X8.5Y-3.775
X8.5Y-3.875
X8.5Y-3.975
X8.5Y-4.075
X8.5Y-4.175
X8.5Y-4.275
X8.5Y-4.375
X8.775Y-4.0016
X8.775Y-4.1
T2
X6.325Y-4.25
T3
X5.Y-4.75
X5.1Y-4.75
X5.2Y-4.75
X6.325Y-3.65
X6.425Y-3.65
X6.425Y-4.25
X6.525Y-3.65
X6.525Y-4.25
X6.625Y-3.65
X6.625Y-4.25
X6.725Y-3.65
X6.725Y-4.25
X6.825Y-3.65
X6.825Y-4.25
T4
X7.8Y-3.675
X7.8Y-4.275
T3
X4.9138Y-3.4606G85X4.9138Y-3.5394
G05
X4.9925Y-3.685G85X5.0713Y-3.685
G05
X5.15Y-3.4606G85X5.15Y-3.5394
G05
T0
M30
