G04 #@! TF.FileFunction,Legend,Top*
%FSLAX46Y46*%
G04 Gerber Fmt 4.6, Leading zero omitted, Abs format (unit mm)*
G04 Created by KiCad (PCBNEW 4.0.7) date Fri Nov 23 17:56:45 2018*
%MOMM*%
%LPD*%
G01*
G04 APERTURE LIST*
%ADD10C,0.100000*%
%ADD11C,0.120000*%
%ADD12C,0.150000*%
G04 APERTURE END LIST*
D10*
D11*
X124420000Y-118030000D02*
X134660000Y-118030000D01*
X124420000Y-122671000D02*
X134660000Y-122671000D01*
X124420000Y-118030000D02*
X124420000Y-122671000D01*
X134660000Y-118030000D02*
X134660000Y-122671000D01*
X124420000Y-119540000D02*
X134660000Y-119540000D01*
X127690000Y-118030000D02*
X127690000Y-119540000D01*
X131391000Y-118030000D02*
X131391000Y-119540000D01*
X125810000Y-93500000D02*
X117010000Y-93500000D01*
X117010000Y-93500000D02*
X117010000Y-84300000D01*
X131710000Y-90800000D02*
X131710000Y-93500000D01*
X131710000Y-93500000D02*
X129810000Y-93500000D01*
X117010000Y-84300000D02*
X131710000Y-84300000D01*
X131710000Y-84300000D02*
X131710000Y-86900000D01*
D12*
X192155000Y-109830000D02*
X141855000Y-109830000D01*
X141855000Y-109830000D02*
X141855000Y-90830000D01*
X141855000Y-90830000D02*
X192155000Y-90830000D01*
X192155000Y-90830000D02*
X192155000Y-109830000D01*
X182635000Y-100330000D02*
X187635000Y-100330000D01*
X180885000Y-106330000D02*
X186135000Y-106330000D01*
X188385000Y-99830000D02*
X189885000Y-94330000D01*
X186635000Y-106330000D02*
X188135000Y-100830000D01*
X182135000Y-99830000D02*
X183635000Y-94330000D01*
X180385000Y-106330000D02*
X181885000Y-100830000D01*
X184135000Y-94330000D02*
X189385000Y-94330000D01*
X145805000Y-100330000D02*
X150805000Y-100330000D01*
X144055000Y-106330000D02*
X149305000Y-106330000D01*
X151555000Y-99830000D02*
X153055000Y-94330000D01*
X149805000Y-106330000D02*
X151305000Y-100830000D01*
X145305000Y-99830000D02*
X146805000Y-94330000D01*
X143555000Y-106330000D02*
X145055000Y-100830000D01*
X147305000Y-94330000D02*
X152555000Y-94330000D01*
X160005000Y-94330000D02*
X165255000Y-94330000D01*
X156255000Y-106330000D02*
X157755000Y-100830000D01*
X158005000Y-99830000D02*
X159505000Y-94330000D01*
X162505000Y-106330000D02*
X164005000Y-100830000D01*
X164255000Y-99830000D02*
X165755000Y-94330000D01*
X156755000Y-106330000D02*
X162005000Y-106330000D01*
X158505000Y-100330000D02*
X163505000Y-100330000D01*
X176890000Y-99830000D02*
X178390000Y-94330000D01*
X172640000Y-94330000D02*
X177890000Y-94330000D01*
X170640000Y-99830000D02*
X172140000Y-94330000D01*
X171140000Y-100330000D02*
X176140000Y-100330000D01*
X169390000Y-106330000D02*
X174640000Y-106330000D01*
X168890000Y-106330000D02*
X170390000Y-100830000D01*
X175140000Y-106330000D02*
X176640000Y-100830000D01*
X189385000Y-105830000D02*
G75*
G03X189385000Y-105830000I-500000J0D01*
G01*
X152555000Y-105830000D02*
G75*
G03X152555000Y-105830000I-500000J0D01*
G01*
X177890000Y-105830000D02*
G75*
G03X177890000Y-105830000I-500000J0D01*
G01*
X165255000Y-105830000D02*
G75*
G03X165255000Y-105830000I-500000J0D01*
G01*
D11*
X129376863Y-108873600D02*
G75*
G03X124582564Y-108875000I-2396863J-981400D01*
G01*
X129376863Y-110836400D02*
G75*
G02X124582564Y-110835000I-2396863J981400D01*
G01*
X129376863Y-110836400D02*
G75*
G03X129377436Y-108875000I-2396863J981400D01*
G01*
X126980000Y-107305000D02*
X126980000Y-112405000D01*
X127020000Y-107305000D02*
X127020000Y-112405000D01*
X127060000Y-107306000D02*
X127060000Y-112404000D01*
X127100000Y-107307000D02*
X127100000Y-112403000D01*
X127140000Y-107309000D02*
X127140000Y-112401000D01*
X127180000Y-107312000D02*
X127180000Y-112398000D01*
X127220000Y-107316000D02*
X127220000Y-112394000D01*
X127260000Y-107320000D02*
X127260000Y-108875000D01*
X127260000Y-110835000D02*
X127260000Y-112390000D01*
X127300000Y-107324000D02*
X127300000Y-108875000D01*
X127300000Y-110835000D02*
X127300000Y-112386000D01*
X127340000Y-107330000D02*
X127340000Y-108875000D01*
X127340000Y-110835000D02*
X127340000Y-112380000D01*
X127380000Y-107336000D02*
X127380000Y-108875000D01*
X127380000Y-110835000D02*
X127380000Y-112374000D01*
X127420000Y-107342000D02*
X127420000Y-108875000D01*
X127420000Y-110835000D02*
X127420000Y-112368000D01*
X127460000Y-107349000D02*
X127460000Y-108875000D01*
X127460000Y-110835000D02*
X127460000Y-112361000D01*
X127500000Y-107357000D02*
X127500000Y-108875000D01*
X127500000Y-110835000D02*
X127500000Y-112353000D01*
X127540000Y-107366000D02*
X127540000Y-108875000D01*
X127540000Y-110835000D02*
X127540000Y-112344000D01*
X127580000Y-107375000D02*
X127580000Y-108875000D01*
X127580000Y-110835000D02*
X127580000Y-112335000D01*
X127620000Y-107385000D02*
X127620000Y-108875000D01*
X127620000Y-110835000D02*
X127620000Y-112325000D01*
X127660000Y-107395000D02*
X127660000Y-108875000D01*
X127660000Y-110835000D02*
X127660000Y-112315000D01*
X127701000Y-107407000D02*
X127701000Y-108875000D01*
X127701000Y-110835000D02*
X127701000Y-112303000D01*
X127741000Y-107419000D02*
X127741000Y-108875000D01*
X127741000Y-110835000D02*
X127741000Y-112291000D01*
X127781000Y-107431000D02*
X127781000Y-108875000D01*
X127781000Y-110835000D02*
X127781000Y-112279000D01*
X127821000Y-107445000D02*
X127821000Y-108875000D01*
X127821000Y-110835000D02*
X127821000Y-112265000D01*
X127861000Y-107459000D02*
X127861000Y-108875000D01*
X127861000Y-110835000D02*
X127861000Y-112251000D01*
X127901000Y-107473000D02*
X127901000Y-108875000D01*
X127901000Y-110835000D02*
X127901000Y-112237000D01*
X127941000Y-107489000D02*
X127941000Y-108875000D01*
X127941000Y-110835000D02*
X127941000Y-112221000D01*
X127981000Y-107505000D02*
X127981000Y-108875000D01*
X127981000Y-110835000D02*
X127981000Y-112205000D01*
X128021000Y-107522000D02*
X128021000Y-108875000D01*
X128021000Y-110835000D02*
X128021000Y-112188000D01*
X128061000Y-107540000D02*
X128061000Y-108875000D01*
X128061000Y-110835000D02*
X128061000Y-112170000D01*
X128101000Y-107559000D02*
X128101000Y-108875000D01*
X128101000Y-110835000D02*
X128101000Y-112151000D01*
X128141000Y-107579000D02*
X128141000Y-108875000D01*
X128141000Y-110835000D02*
X128141000Y-112131000D01*
X128181000Y-107599000D02*
X128181000Y-108875000D01*
X128181000Y-110835000D02*
X128181000Y-112111000D01*
X128221000Y-107621000D02*
X128221000Y-108875000D01*
X128221000Y-110835000D02*
X128221000Y-112089000D01*
X128261000Y-107643000D02*
X128261000Y-108875000D01*
X128261000Y-110835000D02*
X128261000Y-112067000D01*
X128301000Y-107666000D02*
X128301000Y-108875000D01*
X128301000Y-110835000D02*
X128301000Y-112044000D01*
X128341000Y-107690000D02*
X128341000Y-108875000D01*
X128341000Y-110835000D02*
X128341000Y-112020000D01*
X128381000Y-107715000D02*
X128381000Y-108875000D01*
X128381000Y-110835000D02*
X128381000Y-111995000D01*
X128421000Y-107742000D02*
X128421000Y-108875000D01*
X128421000Y-110835000D02*
X128421000Y-111968000D01*
X128461000Y-107769000D02*
X128461000Y-108875000D01*
X128461000Y-110835000D02*
X128461000Y-111941000D01*
X128501000Y-107797000D02*
X128501000Y-108875000D01*
X128501000Y-110835000D02*
X128501000Y-111913000D01*
X128541000Y-107827000D02*
X128541000Y-108875000D01*
X128541000Y-110835000D02*
X128541000Y-111883000D01*
X128581000Y-107858000D02*
X128581000Y-108875000D01*
X128581000Y-110835000D02*
X128581000Y-111852000D01*
X128621000Y-107890000D02*
X128621000Y-108875000D01*
X128621000Y-110835000D02*
X128621000Y-111820000D01*
X128661000Y-107923000D02*
X128661000Y-108875000D01*
X128661000Y-110835000D02*
X128661000Y-111787000D01*
X128701000Y-107958000D02*
X128701000Y-108875000D01*
X128701000Y-110835000D02*
X128701000Y-111752000D01*
X128741000Y-107994000D02*
X128741000Y-108875000D01*
X128741000Y-110835000D02*
X128741000Y-111716000D01*
X128781000Y-108032000D02*
X128781000Y-108875000D01*
X128781000Y-110835000D02*
X128781000Y-111678000D01*
X128821000Y-108072000D02*
X128821000Y-108875000D01*
X128821000Y-110835000D02*
X128821000Y-111638000D01*
X128861000Y-108113000D02*
X128861000Y-108875000D01*
X128861000Y-110835000D02*
X128861000Y-111597000D01*
X128901000Y-108156000D02*
X128901000Y-108875000D01*
X128901000Y-110835000D02*
X128901000Y-111554000D01*
X128941000Y-108201000D02*
X128941000Y-108875000D01*
X128941000Y-110835000D02*
X128941000Y-111509000D01*
X128981000Y-108249000D02*
X128981000Y-108875000D01*
X128981000Y-110835000D02*
X128981000Y-111461000D01*
X129021000Y-108299000D02*
X129021000Y-108875000D01*
X129021000Y-110835000D02*
X129021000Y-111411000D01*
X129061000Y-108351000D02*
X129061000Y-108875000D01*
X129061000Y-110835000D02*
X129061000Y-111359000D01*
X129101000Y-108407000D02*
X129101000Y-108875000D01*
X129101000Y-110835000D02*
X129101000Y-111303000D01*
X129141000Y-108465000D02*
X129141000Y-108875000D01*
X129141000Y-110835000D02*
X129141000Y-111245000D01*
X129181000Y-108528000D02*
X129181000Y-108875000D01*
X129181000Y-110835000D02*
X129181000Y-111182000D01*
X129221000Y-108594000D02*
X129221000Y-111116000D01*
X129261000Y-108666000D02*
X129261000Y-111044000D01*
X129301000Y-108743000D02*
X129301000Y-110967000D01*
X129341000Y-108827000D02*
X129341000Y-110883000D01*
X129381000Y-108921000D02*
X129381000Y-110789000D01*
X129421000Y-109026000D02*
X129421000Y-110684000D01*
X129461000Y-109148000D02*
X129461000Y-110562000D01*
X129501000Y-109296000D02*
X129501000Y-110414000D01*
X129541000Y-109501000D02*
X129541000Y-110209000D01*
X123530000Y-109855000D02*
X124730000Y-109855000D01*
X124130000Y-109205000D02*
X124130000Y-110505000D01*
X221903600Y-100493137D02*
G75*
G03X221905000Y-105287436I981400J-2396863D01*
G01*
X223866400Y-100493137D02*
G75*
G02X223865000Y-105287436I-981400J-2396863D01*
G01*
X223866400Y-100493137D02*
G75*
G03X221905000Y-100492564I-981400J-2396863D01*
G01*
X220335000Y-102890000D02*
X225435000Y-102890000D01*
X220335000Y-102850000D02*
X225435000Y-102850000D01*
X220336000Y-102810000D02*
X225434000Y-102810000D01*
X220337000Y-102770000D02*
X225433000Y-102770000D01*
X220339000Y-102730000D02*
X225431000Y-102730000D01*
X220342000Y-102690000D02*
X225428000Y-102690000D01*
X220346000Y-102650000D02*
X225424000Y-102650000D01*
X220350000Y-102610000D02*
X221905000Y-102610000D01*
X223865000Y-102610000D02*
X225420000Y-102610000D01*
X220354000Y-102570000D02*
X221905000Y-102570000D01*
X223865000Y-102570000D02*
X225416000Y-102570000D01*
X220360000Y-102530000D02*
X221905000Y-102530000D01*
X223865000Y-102530000D02*
X225410000Y-102530000D01*
X220366000Y-102490000D02*
X221905000Y-102490000D01*
X223865000Y-102490000D02*
X225404000Y-102490000D01*
X220372000Y-102450000D02*
X221905000Y-102450000D01*
X223865000Y-102450000D02*
X225398000Y-102450000D01*
X220379000Y-102410000D02*
X221905000Y-102410000D01*
X223865000Y-102410000D02*
X225391000Y-102410000D01*
X220387000Y-102370000D02*
X221905000Y-102370000D01*
X223865000Y-102370000D02*
X225383000Y-102370000D01*
X220396000Y-102330000D02*
X221905000Y-102330000D01*
X223865000Y-102330000D02*
X225374000Y-102330000D01*
X220405000Y-102290000D02*
X221905000Y-102290000D01*
X223865000Y-102290000D02*
X225365000Y-102290000D01*
X220415000Y-102250000D02*
X221905000Y-102250000D01*
X223865000Y-102250000D02*
X225355000Y-102250000D01*
X220425000Y-102210000D02*
X221905000Y-102210000D01*
X223865000Y-102210000D02*
X225345000Y-102210000D01*
X220437000Y-102169000D02*
X221905000Y-102169000D01*
X223865000Y-102169000D02*
X225333000Y-102169000D01*
X220449000Y-102129000D02*
X221905000Y-102129000D01*
X223865000Y-102129000D02*
X225321000Y-102129000D01*
X220461000Y-102089000D02*
X221905000Y-102089000D01*
X223865000Y-102089000D02*
X225309000Y-102089000D01*
X220475000Y-102049000D02*
X221905000Y-102049000D01*
X223865000Y-102049000D02*
X225295000Y-102049000D01*
X220489000Y-102009000D02*
X221905000Y-102009000D01*
X223865000Y-102009000D02*
X225281000Y-102009000D01*
X220503000Y-101969000D02*
X221905000Y-101969000D01*
X223865000Y-101969000D02*
X225267000Y-101969000D01*
X220519000Y-101929000D02*
X221905000Y-101929000D01*
X223865000Y-101929000D02*
X225251000Y-101929000D01*
X220535000Y-101889000D02*
X221905000Y-101889000D01*
X223865000Y-101889000D02*
X225235000Y-101889000D01*
X220552000Y-101849000D02*
X221905000Y-101849000D01*
X223865000Y-101849000D02*
X225218000Y-101849000D01*
X220570000Y-101809000D02*
X221905000Y-101809000D01*
X223865000Y-101809000D02*
X225200000Y-101809000D01*
X220589000Y-101769000D02*
X221905000Y-101769000D01*
X223865000Y-101769000D02*
X225181000Y-101769000D01*
X220609000Y-101729000D02*
X221905000Y-101729000D01*
X223865000Y-101729000D02*
X225161000Y-101729000D01*
X220629000Y-101689000D02*
X221905000Y-101689000D01*
X223865000Y-101689000D02*
X225141000Y-101689000D01*
X220651000Y-101649000D02*
X221905000Y-101649000D01*
X223865000Y-101649000D02*
X225119000Y-101649000D01*
X220673000Y-101609000D02*
X221905000Y-101609000D01*
X223865000Y-101609000D02*
X225097000Y-101609000D01*
X220696000Y-101569000D02*
X221905000Y-101569000D01*
X223865000Y-101569000D02*
X225074000Y-101569000D01*
X220720000Y-101529000D02*
X221905000Y-101529000D01*
X223865000Y-101529000D02*
X225050000Y-101529000D01*
X220745000Y-101489000D02*
X221905000Y-101489000D01*
X223865000Y-101489000D02*
X225025000Y-101489000D01*
X220772000Y-101449000D02*
X221905000Y-101449000D01*
X223865000Y-101449000D02*
X224998000Y-101449000D01*
X220799000Y-101409000D02*
X221905000Y-101409000D01*
X223865000Y-101409000D02*
X224971000Y-101409000D01*
X220827000Y-101369000D02*
X221905000Y-101369000D01*
X223865000Y-101369000D02*
X224943000Y-101369000D01*
X220857000Y-101329000D02*
X221905000Y-101329000D01*
X223865000Y-101329000D02*
X224913000Y-101329000D01*
X220888000Y-101289000D02*
X221905000Y-101289000D01*
X223865000Y-101289000D02*
X224882000Y-101289000D01*
X220920000Y-101249000D02*
X221905000Y-101249000D01*
X223865000Y-101249000D02*
X224850000Y-101249000D01*
X220953000Y-101209000D02*
X221905000Y-101209000D01*
X223865000Y-101209000D02*
X224817000Y-101209000D01*
X220988000Y-101169000D02*
X221905000Y-101169000D01*
X223865000Y-101169000D02*
X224782000Y-101169000D01*
X221024000Y-101129000D02*
X221905000Y-101129000D01*
X223865000Y-101129000D02*
X224746000Y-101129000D01*
X221062000Y-101089000D02*
X221905000Y-101089000D01*
X223865000Y-101089000D02*
X224708000Y-101089000D01*
X221102000Y-101049000D02*
X221905000Y-101049000D01*
X223865000Y-101049000D02*
X224668000Y-101049000D01*
X221143000Y-101009000D02*
X221905000Y-101009000D01*
X223865000Y-101009000D02*
X224627000Y-101009000D01*
X221186000Y-100969000D02*
X221905000Y-100969000D01*
X223865000Y-100969000D02*
X224584000Y-100969000D01*
X221231000Y-100929000D02*
X221905000Y-100929000D01*
X223865000Y-100929000D02*
X224539000Y-100929000D01*
X221279000Y-100889000D02*
X221905000Y-100889000D01*
X223865000Y-100889000D02*
X224491000Y-100889000D01*
X221329000Y-100849000D02*
X221905000Y-100849000D01*
X223865000Y-100849000D02*
X224441000Y-100849000D01*
X221381000Y-100809000D02*
X221905000Y-100809000D01*
X223865000Y-100809000D02*
X224389000Y-100809000D01*
X221437000Y-100769000D02*
X221905000Y-100769000D01*
X223865000Y-100769000D02*
X224333000Y-100769000D01*
X221495000Y-100729000D02*
X221905000Y-100729000D01*
X223865000Y-100729000D02*
X224275000Y-100729000D01*
X221558000Y-100689000D02*
X221905000Y-100689000D01*
X223865000Y-100689000D02*
X224212000Y-100689000D01*
X221624000Y-100649000D02*
X224146000Y-100649000D01*
X221696000Y-100609000D02*
X224074000Y-100609000D01*
X221773000Y-100569000D02*
X223997000Y-100569000D01*
X221857000Y-100529000D02*
X223913000Y-100529000D01*
X221951000Y-100489000D02*
X223819000Y-100489000D01*
X222056000Y-100449000D02*
X223714000Y-100449000D01*
X222178000Y-100409000D02*
X223592000Y-100409000D01*
X222326000Y-100369000D02*
X223444000Y-100369000D01*
X222531000Y-100329000D02*
X223239000Y-100329000D01*
X222885000Y-106340000D02*
X222885000Y-105140000D01*
X222235000Y-105740000D02*
X223535000Y-105740000D01*
X130973137Y-110836400D02*
G75*
G03X135767436Y-110835000I2396863J981400D01*
G01*
X130973137Y-108873600D02*
G75*
G02X135767436Y-108875000I2396863J-981400D01*
G01*
X130973137Y-108873600D02*
G75*
G03X130972564Y-110835000I2396863J-981400D01*
G01*
X133370000Y-112405000D02*
X133370000Y-107305000D01*
X133330000Y-112405000D02*
X133330000Y-107305000D01*
X133290000Y-112404000D02*
X133290000Y-107306000D01*
X133250000Y-112403000D02*
X133250000Y-107307000D01*
X133210000Y-112401000D02*
X133210000Y-107309000D01*
X133170000Y-112398000D02*
X133170000Y-107312000D01*
X133130000Y-112394000D02*
X133130000Y-107316000D01*
X133090000Y-112390000D02*
X133090000Y-110835000D01*
X133090000Y-108875000D02*
X133090000Y-107320000D01*
X133050000Y-112386000D02*
X133050000Y-110835000D01*
X133050000Y-108875000D02*
X133050000Y-107324000D01*
X133010000Y-112380000D02*
X133010000Y-110835000D01*
X133010000Y-108875000D02*
X133010000Y-107330000D01*
X132970000Y-112374000D02*
X132970000Y-110835000D01*
X132970000Y-108875000D02*
X132970000Y-107336000D01*
X132930000Y-112368000D02*
X132930000Y-110835000D01*
X132930000Y-108875000D02*
X132930000Y-107342000D01*
X132890000Y-112361000D02*
X132890000Y-110835000D01*
X132890000Y-108875000D02*
X132890000Y-107349000D01*
X132850000Y-112353000D02*
X132850000Y-110835000D01*
X132850000Y-108875000D02*
X132850000Y-107357000D01*
X132810000Y-112344000D02*
X132810000Y-110835000D01*
X132810000Y-108875000D02*
X132810000Y-107366000D01*
X132770000Y-112335000D02*
X132770000Y-110835000D01*
X132770000Y-108875000D02*
X132770000Y-107375000D01*
X132730000Y-112325000D02*
X132730000Y-110835000D01*
X132730000Y-108875000D02*
X132730000Y-107385000D01*
X132690000Y-112315000D02*
X132690000Y-110835000D01*
X132690000Y-108875000D02*
X132690000Y-107395000D01*
X132649000Y-112303000D02*
X132649000Y-110835000D01*
X132649000Y-108875000D02*
X132649000Y-107407000D01*
X132609000Y-112291000D02*
X132609000Y-110835000D01*
X132609000Y-108875000D02*
X132609000Y-107419000D01*
X132569000Y-112279000D02*
X132569000Y-110835000D01*
X132569000Y-108875000D02*
X132569000Y-107431000D01*
X132529000Y-112265000D02*
X132529000Y-110835000D01*
X132529000Y-108875000D02*
X132529000Y-107445000D01*
X132489000Y-112251000D02*
X132489000Y-110835000D01*
X132489000Y-108875000D02*
X132489000Y-107459000D01*
X132449000Y-112237000D02*
X132449000Y-110835000D01*
X132449000Y-108875000D02*
X132449000Y-107473000D01*
X132409000Y-112221000D02*
X132409000Y-110835000D01*
X132409000Y-108875000D02*
X132409000Y-107489000D01*
X132369000Y-112205000D02*
X132369000Y-110835000D01*
X132369000Y-108875000D02*
X132369000Y-107505000D01*
X132329000Y-112188000D02*
X132329000Y-110835000D01*
X132329000Y-108875000D02*
X132329000Y-107522000D01*
X132289000Y-112170000D02*
X132289000Y-110835000D01*
X132289000Y-108875000D02*
X132289000Y-107540000D01*
X132249000Y-112151000D02*
X132249000Y-110835000D01*
X132249000Y-108875000D02*
X132249000Y-107559000D01*
X132209000Y-112131000D02*
X132209000Y-110835000D01*
X132209000Y-108875000D02*
X132209000Y-107579000D01*
X132169000Y-112111000D02*
X132169000Y-110835000D01*
X132169000Y-108875000D02*
X132169000Y-107599000D01*
X132129000Y-112089000D02*
X132129000Y-110835000D01*
X132129000Y-108875000D02*
X132129000Y-107621000D01*
X132089000Y-112067000D02*
X132089000Y-110835000D01*
X132089000Y-108875000D02*
X132089000Y-107643000D01*
X132049000Y-112044000D02*
X132049000Y-110835000D01*
X132049000Y-108875000D02*
X132049000Y-107666000D01*
X132009000Y-112020000D02*
X132009000Y-110835000D01*
X132009000Y-108875000D02*
X132009000Y-107690000D01*
X131969000Y-111995000D02*
X131969000Y-110835000D01*
X131969000Y-108875000D02*
X131969000Y-107715000D01*
X131929000Y-111968000D02*
X131929000Y-110835000D01*
X131929000Y-108875000D02*
X131929000Y-107742000D01*
X131889000Y-111941000D02*
X131889000Y-110835000D01*
X131889000Y-108875000D02*
X131889000Y-107769000D01*
X131849000Y-111913000D02*
X131849000Y-110835000D01*
X131849000Y-108875000D02*
X131849000Y-107797000D01*
X131809000Y-111883000D02*
X131809000Y-110835000D01*
X131809000Y-108875000D02*
X131809000Y-107827000D01*
X131769000Y-111852000D02*
X131769000Y-110835000D01*
X131769000Y-108875000D02*
X131769000Y-107858000D01*
X131729000Y-111820000D02*
X131729000Y-110835000D01*
X131729000Y-108875000D02*
X131729000Y-107890000D01*
X131689000Y-111787000D02*
X131689000Y-110835000D01*
X131689000Y-108875000D02*
X131689000Y-107923000D01*
X131649000Y-111752000D02*
X131649000Y-110835000D01*
X131649000Y-108875000D02*
X131649000Y-107958000D01*
X131609000Y-111716000D02*
X131609000Y-110835000D01*
X131609000Y-108875000D02*
X131609000Y-107994000D01*
X131569000Y-111678000D02*
X131569000Y-110835000D01*
X131569000Y-108875000D02*
X131569000Y-108032000D01*
X131529000Y-111638000D02*
X131529000Y-110835000D01*
X131529000Y-108875000D02*
X131529000Y-108072000D01*
X131489000Y-111597000D02*
X131489000Y-110835000D01*
X131489000Y-108875000D02*
X131489000Y-108113000D01*
X131449000Y-111554000D02*
X131449000Y-110835000D01*
X131449000Y-108875000D02*
X131449000Y-108156000D01*
X131409000Y-111509000D02*
X131409000Y-110835000D01*
X131409000Y-108875000D02*
X131409000Y-108201000D01*
X131369000Y-111461000D02*
X131369000Y-110835000D01*
X131369000Y-108875000D02*
X131369000Y-108249000D01*
X131329000Y-111411000D02*
X131329000Y-110835000D01*
X131329000Y-108875000D02*
X131329000Y-108299000D01*
X131289000Y-111359000D02*
X131289000Y-110835000D01*
X131289000Y-108875000D02*
X131289000Y-108351000D01*
X131249000Y-111303000D02*
X131249000Y-110835000D01*
X131249000Y-108875000D02*
X131249000Y-108407000D01*
X131209000Y-111245000D02*
X131209000Y-110835000D01*
X131209000Y-108875000D02*
X131209000Y-108465000D01*
X131169000Y-111182000D02*
X131169000Y-110835000D01*
X131169000Y-108875000D02*
X131169000Y-108528000D01*
X131129000Y-111116000D02*
X131129000Y-108594000D01*
X131089000Y-111044000D02*
X131089000Y-108666000D01*
X131049000Y-110967000D02*
X131049000Y-108743000D01*
X131009000Y-110883000D02*
X131009000Y-108827000D01*
X130969000Y-110789000D02*
X130969000Y-108921000D01*
X130929000Y-110684000D02*
X130929000Y-109026000D01*
X130889000Y-110562000D02*
X130889000Y-109148000D01*
X130849000Y-110414000D02*
X130849000Y-109296000D01*
X130809000Y-110209000D02*
X130809000Y-109501000D01*
X136820000Y-109855000D02*
X135620000Y-109855000D01*
X136220000Y-110505000D02*
X136220000Y-109205000D01*
X199980000Y-95955000D02*
X196260000Y-95955000D01*
X196260000Y-95955000D02*
X196260000Y-105975000D01*
X196260000Y-105975000D02*
X199980000Y-105975000D01*
X199980000Y-105975000D02*
X199980000Y-95955000D01*
X198120000Y-94725000D02*
X198120000Y-95955000D01*
X198120000Y-107205000D02*
X198120000Y-105975000D01*
X211090000Y-112515000D02*
G75*
G02X213090000Y-112515000I1000000J0D01*
G01*
X213090000Y-112515000D02*
X214860000Y-112515000D01*
X214860000Y-112515000D02*
X214860000Y-86875000D01*
X214860000Y-86875000D02*
X209320000Y-86875000D01*
X209320000Y-86875000D02*
X209320000Y-112515000D01*
X209320000Y-112515000D02*
X211090000Y-112515000D01*
X217290000Y-112515000D02*
X217290000Y-86875000D01*
X217290000Y-86875000D02*
X206890000Y-86875000D01*
X206890000Y-86875000D02*
X206890000Y-112515000D01*
X206890000Y-112515000D02*
X217290000Y-112515000D01*
X169910000Y-82975000D02*
X191970000Y-82975000D01*
X191970000Y-82975000D02*
X191970000Y-80855000D01*
X191970000Y-80855000D02*
X169910000Y-80855000D01*
X169910000Y-80855000D02*
X169910000Y-82975000D01*
X168910000Y-82975000D02*
X167850000Y-82975000D01*
X167850000Y-82975000D02*
X167850000Y-81915000D01*
X169910000Y-76625000D02*
X191970000Y-76625000D01*
X191970000Y-76625000D02*
X191970000Y-74505000D01*
X191970000Y-74505000D02*
X169910000Y-74505000D01*
X169910000Y-74505000D02*
X169910000Y-76625000D01*
X168910000Y-76625000D02*
X167850000Y-76625000D01*
X167850000Y-76625000D02*
X167850000Y-75565000D01*
X138795000Y-85515000D02*
X144855000Y-85515000D01*
X144855000Y-85515000D02*
X144855000Y-83395000D01*
X144855000Y-83395000D02*
X138795000Y-83395000D01*
X138795000Y-83395000D02*
X138795000Y-85515000D01*
X137795000Y-85515000D02*
X136735000Y-85515000D01*
X136735000Y-85515000D02*
X136735000Y-84455000D01*
D12*
X124968095Y-116292381D02*
X124968095Y-117101905D01*
X125015714Y-117197143D01*
X125063333Y-117244762D01*
X125158571Y-117292381D01*
X125349048Y-117292381D01*
X125444286Y-117244762D01*
X125491905Y-117197143D01*
X125539524Y-117101905D01*
X125539524Y-116292381D01*
X125968095Y-116387619D02*
X126015714Y-116340000D01*
X126110952Y-116292381D01*
X126349048Y-116292381D01*
X126444286Y-116340000D01*
X126491905Y-116387619D01*
X126539524Y-116482857D01*
X126539524Y-116578095D01*
X126491905Y-116720952D01*
X125920476Y-117292381D01*
X126539524Y-117292381D01*
X123491667Y-94067381D02*
X123491667Y-94781667D01*
X123444047Y-94924524D01*
X123348809Y-95019762D01*
X123205952Y-95067381D01*
X123110714Y-95067381D01*
X124491667Y-95067381D02*
X123920238Y-95067381D01*
X124205952Y-95067381D02*
X124205952Y-94067381D01*
X124110714Y-94210238D01*
X124015476Y-94305476D01*
X123920238Y-94353095D01*
X142748095Y-89622381D02*
X142748095Y-90431905D01*
X142795714Y-90527143D01*
X142843333Y-90574762D01*
X142938571Y-90622381D01*
X143129048Y-90622381D01*
X143224286Y-90574762D01*
X143271905Y-90527143D01*
X143319524Y-90431905D01*
X143319524Y-89622381D01*
X144224286Y-89955714D02*
X144224286Y-90622381D01*
X143986190Y-89574762D02*
X143748095Y-90289048D01*
X144367143Y-90289048D01*
X126813334Y-106652143D02*
X126765715Y-106699762D01*
X126622858Y-106747381D01*
X126527620Y-106747381D01*
X126384762Y-106699762D01*
X126289524Y-106604524D01*
X126241905Y-106509286D01*
X126194286Y-106318810D01*
X126194286Y-106175952D01*
X126241905Y-105985476D01*
X126289524Y-105890238D01*
X126384762Y-105795000D01*
X126527620Y-105747381D01*
X126622858Y-105747381D01*
X126765715Y-105795000D01*
X126813334Y-105842619D01*
X127765715Y-106747381D02*
X127194286Y-106747381D01*
X127480000Y-106747381D02*
X127480000Y-105747381D01*
X127384762Y-105890238D01*
X127289524Y-105985476D01*
X127194286Y-106033095D01*
X220813334Y-99417143D02*
X220765715Y-99464762D01*
X220622858Y-99512381D01*
X220527620Y-99512381D01*
X220384762Y-99464762D01*
X220289524Y-99369524D01*
X220241905Y-99274286D01*
X220194286Y-99083810D01*
X220194286Y-98940952D01*
X220241905Y-98750476D01*
X220289524Y-98655238D01*
X220384762Y-98560000D01*
X220527620Y-98512381D01*
X220622858Y-98512381D01*
X220765715Y-98560000D01*
X220813334Y-98607619D01*
X221194286Y-98607619D02*
X221241905Y-98560000D01*
X221337143Y-98512381D01*
X221575239Y-98512381D01*
X221670477Y-98560000D01*
X221718096Y-98607619D01*
X221765715Y-98702857D01*
X221765715Y-98798095D01*
X221718096Y-98940952D01*
X221146667Y-99512381D01*
X221765715Y-99512381D01*
X133203334Y-113772143D02*
X133155715Y-113819762D01*
X133012858Y-113867381D01*
X132917620Y-113867381D01*
X132774762Y-113819762D01*
X132679524Y-113724524D01*
X132631905Y-113629286D01*
X132584286Y-113438810D01*
X132584286Y-113295952D01*
X132631905Y-113105476D01*
X132679524Y-113010238D01*
X132774762Y-112915000D01*
X132917620Y-112867381D01*
X133012858Y-112867381D01*
X133155715Y-112915000D01*
X133203334Y-112962619D01*
X133536667Y-112867381D02*
X134155715Y-112867381D01*
X133822381Y-113248333D01*
X133965239Y-113248333D01*
X134060477Y-113295952D01*
X134108096Y-113343571D01*
X134155715Y-113438810D01*
X134155715Y-113676905D01*
X134108096Y-113772143D01*
X134060477Y-113819762D01*
X133965239Y-113867381D01*
X133679524Y-113867381D01*
X133584286Y-113819762D01*
X133536667Y-113772143D01*
X201747381Y-99861666D02*
X201271190Y-100195000D01*
X201747381Y-100433095D02*
X200747381Y-100433095D01*
X200747381Y-100052142D01*
X200795000Y-99956904D01*
X200842619Y-99909285D01*
X200937857Y-99861666D01*
X201080714Y-99861666D01*
X201175952Y-99909285D01*
X201223571Y-99956904D01*
X201271190Y-100052142D01*
X201271190Y-100433095D01*
X201747381Y-98909285D02*
X201747381Y-99480714D01*
X201747381Y-99195000D02*
X200747381Y-99195000D01*
X200890238Y-99290238D01*
X200985476Y-99385476D01*
X201033095Y-99480714D01*
X211963095Y-85177381D02*
X211963095Y-85986905D01*
X212010714Y-86082143D01*
X212058333Y-86129762D01*
X212153571Y-86177381D01*
X212344048Y-86177381D01*
X212439286Y-86129762D01*
X212486905Y-86082143D01*
X212534524Y-85986905D01*
X212534524Y-85177381D01*
X212915476Y-85177381D02*
X213534524Y-85177381D01*
X213201190Y-85558333D01*
X213344048Y-85558333D01*
X213439286Y-85605952D01*
X213486905Y-85653571D01*
X213534524Y-85748810D01*
X213534524Y-85986905D01*
X213486905Y-86082143D01*
X213439286Y-86129762D01*
X213344048Y-86177381D01*
X213058333Y-86177381D01*
X212963095Y-86129762D01*
X212915476Y-86082143D01*
X166302381Y-82248333D02*
X167016667Y-82248333D01*
X167159524Y-82295953D01*
X167254762Y-82391191D01*
X167302381Y-82534048D01*
X167302381Y-82629286D01*
X166397619Y-81819762D02*
X166350000Y-81772143D01*
X166302381Y-81676905D01*
X166302381Y-81438809D01*
X166350000Y-81343571D01*
X166397619Y-81295952D01*
X166492857Y-81248333D01*
X166588095Y-81248333D01*
X166730952Y-81295952D01*
X167302381Y-81867381D01*
X167302381Y-81248333D01*
X167941667Y-73112381D02*
X167941667Y-73826667D01*
X167894047Y-73969524D01*
X167798809Y-74064762D01*
X167655952Y-74112381D01*
X167560714Y-74112381D01*
X168322619Y-73112381D02*
X168941667Y-73112381D01*
X168608333Y-73493333D01*
X168751191Y-73493333D01*
X168846429Y-73540952D01*
X168894048Y-73588571D01*
X168941667Y-73683810D01*
X168941667Y-73921905D01*
X168894048Y-74017143D01*
X168846429Y-74064762D01*
X168751191Y-74112381D01*
X168465476Y-74112381D01*
X168370238Y-74064762D01*
X168322619Y-74017143D01*
X137033095Y-85812381D02*
X137033095Y-86621905D01*
X137080714Y-86717143D01*
X137128333Y-86764762D01*
X137223571Y-86812381D01*
X137414048Y-86812381D01*
X137509286Y-86764762D01*
X137556905Y-86717143D01*
X137604524Y-86621905D01*
X137604524Y-85812381D01*
X138604524Y-86812381D02*
X138033095Y-86812381D01*
X138318809Y-86812381D02*
X138318809Y-85812381D01*
X138223571Y-85955238D01*
X138128333Y-86050476D01*
X138033095Y-86098095D01*
M02*
