G04 #@! TF.FileFunction,Other,Fab,Top*
%FSLAX46Y46*%
G04 Gerber Fmt 4.6, Leading zero omitted, Abs format (unit mm)*
G04 Created by KiCad (PCBNEW 4.0.7) date Fri Nov 23 17:56:45 2018*
%MOMM*%
%LPD*%
G01*
G04 APERTURE LIST*
%ADD10C,0.100000*%
%ADD11C,0.150000*%
G04 APERTURE END LIST*
D10*
X124540000Y-118150000D02*
X124540000Y-122550000D01*
X124540000Y-122550000D02*
X134540000Y-122550000D01*
X134540000Y-122550000D02*
X134540000Y-118150000D01*
X134540000Y-118150000D02*
X124540000Y-118150000D01*
X124540000Y-119420000D02*
X134540000Y-119420000D01*
X127690000Y-118150000D02*
X127690000Y-119420000D01*
X131390000Y-118150000D02*
X131390000Y-119420000D01*
X120610000Y-84400000D02*
X120610000Y-93400000D01*
X117110000Y-84400000D02*
X117110000Y-93400000D01*
X117110000Y-93400000D02*
X131610000Y-93400000D01*
X131610000Y-93400000D02*
X131610000Y-84400000D01*
X131610000Y-84400000D02*
X117110000Y-84400000D01*
X129480000Y-109855000D02*
G75*
G03X129480000Y-109855000I-2500000J0D01*
G01*
X123530000Y-109855000D02*
X124730000Y-109855000D01*
X124130000Y-109205000D02*
X124130000Y-110505000D01*
X225385000Y-102890000D02*
G75*
G03X225385000Y-102890000I-2500000J0D01*
G01*
X222885000Y-106340000D02*
X222885000Y-105140000D01*
X222235000Y-105740000D02*
X223535000Y-105740000D01*
X135870000Y-109855000D02*
G75*
G03X135870000Y-109855000I-2500000J0D01*
G01*
X136820000Y-109855000D02*
X135620000Y-109855000D01*
X136220000Y-110505000D02*
X136220000Y-109205000D01*
X199920000Y-96015000D02*
X196320000Y-96015000D01*
X196320000Y-96015000D02*
X196320000Y-105915000D01*
X196320000Y-105915000D02*
X199920000Y-105915000D01*
X199920000Y-105915000D02*
X199920000Y-96015000D01*
X198120000Y-93345000D02*
X198120000Y-96015000D01*
X198120000Y-108585000D02*
X198120000Y-105915000D01*
X214265000Y-112395000D02*
X208915000Y-112395000D01*
X208915000Y-112395000D02*
X208915000Y-86995000D01*
X208915000Y-86995000D02*
X215265000Y-86995000D01*
X215265000Y-86995000D02*
X215265000Y-111395000D01*
X215265000Y-111395000D02*
X214265000Y-112395000D01*
X217170000Y-112395000D02*
X217170000Y-86995000D01*
X217170000Y-86995000D02*
X207010000Y-86995000D01*
X207010000Y-86995000D02*
X207010000Y-112395000D01*
X207010000Y-112395000D02*
X217170000Y-112395000D01*
X167910000Y-82915000D02*
X191910000Y-82915000D01*
X191910000Y-82915000D02*
X191910000Y-80915000D01*
X191910000Y-80915000D02*
X167910000Y-80915000D01*
X167910000Y-80915000D02*
X167910000Y-82915000D01*
X167910000Y-76565000D02*
X191910000Y-76565000D01*
X191910000Y-76565000D02*
X191910000Y-74565000D01*
X191910000Y-74565000D02*
X167910000Y-74565000D01*
X167910000Y-74565000D02*
X167910000Y-76565000D01*
X136795000Y-85455000D02*
X144795000Y-85455000D01*
X144795000Y-85455000D02*
X144795000Y-83455000D01*
X144795000Y-83455000D02*
X136795000Y-83455000D01*
X136795000Y-83455000D02*
X136795000Y-85455000D01*
D11*
X124659048Y-125022381D02*
X124182857Y-125022381D01*
X124182857Y-124022381D01*
X124992381Y-125022381D02*
X124992381Y-124022381D01*
X125325715Y-124736667D01*
X125659048Y-124022381D01*
X125659048Y-125022381D01*
X126040000Y-124022381D02*
X126706667Y-124022381D01*
X126278095Y-125022381D01*
X127230476Y-124450952D02*
X127135238Y-124403333D01*
X127087619Y-124355714D01*
X127040000Y-124260476D01*
X127040000Y-124212857D01*
X127087619Y-124117619D01*
X127135238Y-124070000D01*
X127230476Y-124022381D01*
X127420953Y-124022381D01*
X127516191Y-124070000D01*
X127563810Y-124117619D01*
X127611429Y-124212857D01*
X127611429Y-124260476D01*
X127563810Y-124355714D01*
X127516191Y-124403333D01*
X127420953Y-124450952D01*
X127230476Y-124450952D01*
X127135238Y-124498571D01*
X127087619Y-124546190D01*
X127040000Y-124641429D01*
X127040000Y-124831905D01*
X127087619Y-124927143D01*
X127135238Y-124974762D01*
X127230476Y-125022381D01*
X127420953Y-125022381D01*
X127516191Y-124974762D01*
X127563810Y-124927143D01*
X127611429Y-124831905D01*
X127611429Y-124641429D01*
X127563810Y-124546190D01*
X127516191Y-124498571D01*
X127420953Y-124450952D01*
X128230476Y-124022381D02*
X128325715Y-124022381D01*
X128420953Y-124070000D01*
X128468572Y-124117619D01*
X128516191Y-124212857D01*
X128563810Y-124403333D01*
X128563810Y-124641429D01*
X128516191Y-124831905D01*
X128468572Y-124927143D01*
X128420953Y-124974762D01*
X128325715Y-125022381D01*
X128230476Y-125022381D01*
X128135238Y-124974762D01*
X128087619Y-124927143D01*
X128040000Y-124831905D01*
X127992381Y-124641429D01*
X127992381Y-124403333D01*
X128040000Y-124212857D01*
X128087619Y-124117619D01*
X128135238Y-124070000D01*
X128230476Y-124022381D01*
X129468572Y-124022381D02*
X128992381Y-124022381D01*
X128944762Y-124498571D01*
X128992381Y-124450952D01*
X129087619Y-124403333D01*
X129325715Y-124403333D01*
X129420953Y-124450952D01*
X129468572Y-124498571D01*
X129516191Y-124593810D01*
X129516191Y-124831905D01*
X129468572Y-124927143D01*
X129420953Y-124974762D01*
X129325715Y-125022381D01*
X129087619Y-125022381D01*
X128992381Y-124974762D01*
X128944762Y-124927143D01*
X129706667Y-125117619D02*
X130468572Y-125117619D01*
X130563810Y-124022381D02*
X131135239Y-124022381D01*
X130849524Y-125022381D02*
X130849524Y-124022381D01*
X131659048Y-124022381D02*
X131849525Y-124022381D01*
X131944763Y-124070000D01*
X132040001Y-124165238D01*
X132087620Y-124355714D01*
X132087620Y-124689048D01*
X132040001Y-124879524D01*
X131944763Y-124974762D01*
X131849525Y-125022381D01*
X131659048Y-125022381D01*
X131563810Y-124974762D01*
X131468572Y-124879524D01*
X131420953Y-124689048D01*
X131420953Y-124355714D01*
X131468572Y-124165238D01*
X131563810Y-124070000D01*
X131659048Y-124022381D01*
X132468572Y-124117619D02*
X132516191Y-124070000D01*
X132611429Y-124022381D01*
X132849525Y-124022381D01*
X132944763Y-124070000D01*
X132992382Y-124117619D01*
X133040001Y-124212857D01*
X133040001Y-124308095D01*
X132992382Y-124450952D01*
X132420953Y-125022381D01*
X133040001Y-125022381D01*
X133420953Y-124117619D02*
X133468572Y-124070000D01*
X133563810Y-124022381D01*
X133801906Y-124022381D01*
X133897144Y-124070000D01*
X133944763Y-124117619D01*
X133992382Y-124212857D01*
X133992382Y-124308095D01*
X133944763Y-124450952D01*
X133373334Y-125022381D01*
X133992382Y-125022381D01*
X134611429Y-124022381D02*
X134706668Y-124022381D01*
X134801906Y-124070000D01*
X134849525Y-124117619D01*
X134897144Y-124212857D01*
X134944763Y-124403333D01*
X134944763Y-124641429D01*
X134897144Y-124831905D01*
X134849525Y-124927143D01*
X134801906Y-124974762D01*
X134706668Y-125022381D01*
X134611429Y-125022381D01*
X134516191Y-124974762D01*
X134468572Y-124927143D01*
X134420953Y-124831905D01*
X134373334Y-124641429D01*
X134373334Y-124403333D01*
X134420953Y-124212857D01*
X134468572Y-124117619D01*
X134516191Y-124070000D01*
X134611429Y-124022381D01*
X124968095Y-116292381D02*
X124968095Y-117101905D01*
X125015714Y-117197143D01*
X125063333Y-117244762D01*
X125158571Y-117292381D01*
X125349048Y-117292381D01*
X125444286Y-117244762D01*
X125491905Y-117197143D01*
X125539524Y-117101905D01*
X125539524Y-116292381D01*
X125968095Y-116387619D02*
X126015714Y-116340000D01*
X126110952Y-116292381D01*
X126349048Y-116292381D01*
X126444286Y-116340000D01*
X126491905Y-116387619D01*
X126539524Y-116482857D01*
X126539524Y-116578095D01*
X126491905Y-116720952D01*
X125920476Y-117292381D01*
X126539524Y-117292381D01*
X132802381Y-91661904D02*
X133516667Y-91661904D01*
X133659524Y-91709524D01*
X133754762Y-91804762D01*
X133802381Y-91947619D01*
X133802381Y-92042857D01*
X133802381Y-90757142D02*
X133278571Y-90757142D01*
X133183333Y-90804761D01*
X133135714Y-90899999D01*
X133135714Y-91090476D01*
X133183333Y-91185714D01*
X133754762Y-90757142D02*
X133802381Y-90852380D01*
X133802381Y-91090476D01*
X133754762Y-91185714D01*
X133659524Y-91233333D01*
X133564286Y-91233333D01*
X133469048Y-91185714D01*
X133421429Y-91090476D01*
X133421429Y-90852380D01*
X133373810Y-90757142D01*
X133754762Y-89852380D02*
X133802381Y-89947618D01*
X133802381Y-90138095D01*
X133754762Y-90233333D01*
X133707143Y-90280952D01*
X133611905Y-90328571D01*
X133326190Y-90328571D01*
X133230952Y-90280952D01*
X133183333Y-90233333D01*
X133135714Y-90138095D01*
X133135714Y-89947618D01*
X133183333Y-89852380D01*
X133802381Y-89423809D02*
X132802381Y-89423809D01*
X133421429Y-89328571D02*
X133802381Y-89042856D01*
X133135714Y-89042856D02*
X133516667Y-89423809D01*
X133421429Y-88614285D02*
X133421429Y-87852380D01*
X133802381Y-87376190D02*
X132802381Y-87376190D01*
X132802381Y-87138095D01*
X132850000Y-86995237D01*
X132945238Y-86899999D01*
X133040476Y-86852380D01*
X133230952Y-86804761D01*
X133373810Y-86804761D01*
X133564286Y-86852380D01*
X133659524Y-86899999D01*
X133754762Y-86995237D01*
X133802381Y-87138095D01*
X133802381Y-87376190D01*
X133707143Y-85804761D02*
X133754762Y-85852380D01*
X133802381Y-85995237D01*
X133802381Y-86090475D01*
X133754762Y-86233333D01*
X133659524Y-86328571D01*
X133564286Y-86376190D01*
X133373810Y-86423809D01*
X133230952Y-86423809D01*
X133040476Y-86376190D01*
X132945238Y-86328571D01*
X132850000Y-86233333D01*
X132802381Y-86090475D01*
X132802381Y-85995237D01*
X132850000Y-85852380D01*
X132897619Y-85804761D01*
X143447143Y-109577143D02*
X143399524Y-109624762D01*
X143256667Y-109672381D01*
X143161429Y-109672381D01*
X143018571Y-109624762D01*
X142923333Y-109529524D01*
X142875714Y-109434286D01*
X142828095Y-109243810D01*
X142828095Y-109100952D01*
X142875714Y-108910476D01*
X142923333Y-108815238D01*
X143018571Y-108720000D01*
X143161429Y-108672381D01*
X143256667Y-108672381D01*
X143399524Y-108720000D01*
X143447143Y-108767619D01*
X143828095Y-109386667D02*
X144304286Y-109386667D01*
X143732857Y-109672381D02*
X144066190Y-108672381D01*
X144399524Y-109672381D01*
X145209048Y-108672381D02*
X144732857Y-108672381D01*
X144685238Y-109148571D01*
X144732857Y-109100952D01*
X144828095Y-109053333D01*
X145066191Y-109053333D01*
X145161429Y-109100952D01*
X145209048Y-109148571D01*
X145256667Y-109243810D01*
X145256667Y-109481905D01*
X145209048Y-109577143D01*
X145161429Y-109624762D01*
X145066191Y-109672381D01*
X144828095Y-109672381D01*
X144732857Y-109624762D01*
X144685238Y-109577143D01*
X146113810Y-108672381D02*
X145923333Y-108672381D01*
X145828095Y-108720000D01*
X145780476Y-108767619D01*
X145685238Y-108910476D01*
X145637619Y-109100952D01*
X145637619Y-109481905D01*
X145685238Y-109577143D01*
X145732857Y-109624762D01*
X145828095Y-109672381D01*
X146018572Y-109672381D01*
X146113810Y-109624762D01*
X146161429Y-109577143D01*
X146209048Y-109481905D01*
X146209048Y-109243810D01*
X146161429Y-109148571D01*
X146113810Y-109100952D01*
X146018572Y-109053333D01*
X145828095Y-109053333D01*
X145732857Y-109100952D01*
X145685238Y-109148571D01*
X145637619Y-109243810D01*
X146637619Y-109291429D02*
X147399524Y-109291429D01*
X148399524Y-109672381D02*
X147828095Y-109672381D01*
X148113809Y-109672381D02*
X148113809Y-108672381D01*
X148018571Y-108815238D01*
X147923333Y-108910476D01*
X147828095Y-108958095D01*
X148780476Y-108767619D02*
X148828095Y-108720000D01*
X148923333Y-108672381D01*
X149161429Y-108672381D01*
X149256667Y-108720000D01*
X149304286Y-108767619D01*
X149351905Y-108862857D01*
X149351905Y-108958095D01*
X149304286Y-109100952D01*
X148732857Y-109672381D01*
X149351905Y-109672381D01*
X150351905Y-109577143D02*
X150304286Y-109624762D01*
X150161429Y-109672381D01*
X150066191Y-109672381D01*
X149923333Y-109624762D01*
X149828095Y-109529524D01*
X149780476Y-109434286D01*
X149732857Y-109243810D01*
X149732857Y-109100952D01*
X149780476Y-108910476D01*
X149828095Y-108815238D01*
X149923333Y-108720000D01*
X150066191Y-108672381D01*
X150161429Y-108672381D01*
X150304286Y-108720000D01*
X150351905Y-108767619D01*
X151304286Y-108720000D02*
X151209048Y-108672381D01*
X151066191Y-108672381D01*
X150923333Y-108720000D01*
X150828095Y-108815238D01*
X150780476Y-108910476D01*
X150732857Y-109100952D01*
X150732857Y-109243810D01*
X150780476Y-109434286D01*
X150828095Y-109529524D01*
X150923333Y-109624762D01*
X151066191Y-109672381D01*
X151161429Y-109672381D01*
X151304286Y-109624762D01*
X151351905Y-109577143D01*
X151351905Y-109243810D01*
X151161429Y-109243810D01*
X151780476Y-109672381D02*
X151780476Y-108672381D01*
X152351905Y-109672381D02*
X151923333Y-109100952D01*
X152351905Y-108672381D02*
X151780476Y-109243810D01*
X152685238Y-108672381D02*
X152923333Y-109672381D01*
X153113810Y-108958095D01*
X153304286Y-109672381D01*
X153542381Y-108672381D01*
X153875714Y-109386667D02*
X154351905Y-109386667D01*
X153780476Y-109672381D02*
X154113809Y-108672381D01*
X154447143Y-109672381D01*
X124813333Y-112867381D02*
X125432381Y-112867381D01*
X125099047Y-113248333D01*
X125241905Y-113248333D01*
X125337143Y-113295952D01*
X125384762Y-113343571D01*
X125432381Y-113438810D01*
X125432381Y-113676905D01*
X125384762Y-113772143D01*
X125337143Y-113819762D01*
X125241905Y-113867381D01*
X124956190Y-113867381D01*
X124860952Y-113819762D01*
X124813333Y-113772143D01*
X125765714Y-112867381D02*
X126384762Y-112867381D01*
X126051428Y-113248333D01*
X126194286Y-113248333D01*
X126289524Y-113295952D01*
X126337143Y-113343571D01*
X126384762Y-113438810D01*
X126384762Y-113676905D01*
X126337143Y-113772143D01*
X126289524Y-113819762D01*
X126194286Y-113867381D01*
X125908571Y-113867381D01*
X125813333Y-113819762D01*
X125765714Y-113772143D01*
X127003809Y-112867381D02*
X127099048Y-112867381D01*
X127194286Y-112915000D01*
X127241905Y-112962619D01*
X127289524Y-113057857D01*
X127337143Y-113248333D01*
X127337143Y-113486429D01*
X127289524Y-113676905D01*
X127241905Y-113772143D01*
X127194286Y-113819762D01*
X127099048Y-113867381D01*
X127003809Y-113867381D01*
X126908571Y-113819762D01*
X126860952Y-113772143D01*
X126813333Y-113676905D01*
X126765714Y-113486429D01*
X126765714Y-113248333D01*
X126813333Y-113057857D01*
X126860952Y-112962619D01*
X126908571Y-112915000D01*
X127003809Y-112867381D01*
X127765714Y-113200714D02*
X127765714Y-113867381D01*
X127765714Y-113295952D02*
X127813333Y-113248333D01*
X127908571Y-113200714D01*
X128051429Y-113200714D01*
X128146667Y-113248333D01*
X128194286Y-113343571D01*
X128194286Y-113867381D01*
X129003810Y-113343571D02*
X128670476Y-113343571D01*
X128670476Y-113867381D02*
X128670476Y-112867381D01*
X129146667Y-112867381D01*
X226897381Y-104437619D02*
X226897381Y-105009048D01*
X226897381Y-104723334D02*
X225897381Y-104723334D01*
X226040238Y-104818572D01*
X226135476Y-104913810D01*
X226183095Y-105009048D01*
X225897381Y-103818572D02*
X225897381Y-103723333D01*
X225945000Y-103628095D01*
X225992619Y-103580476D01*
X226087857Y-103532857D01*
X226278333Y-103485238D01*
X226516429Y-103485238D01*
X226706905Y-103532857D01*
X226802143Y-103580476D01*
X226849762Y-103628095D01*
X226897381Y-103723333D01*
X226897381Y-103818572D01*
X226849762Y-103913810D01*
X226802143Y-103961429D01*
X226706905Y-104009048D01*
X226516429Y-104056667D01*
X226278333Y-104056667D01*
X226087857Y-104009048D01*
X225992619Y-103961429D01*
X225945000Y-103913810D01*
X225897381Y-103818572D01*
X225897381Y-102866191D02*
X225897381Y-102770952D01*
X225945000Y-102675714D01*
X225992619Y-102628095D01*
X226087857Y-102580476D01*
X226278333Y-102532857D01*
X226516429Y-102532857D01*
X226706905Y-102580476D01*
X226802143Y-102628095D01*
X226849762Y-102675714D01*
X226897381Y-102770952D01*
X226897381Y-102866191D01*
X226849762Y-102961429D01*
X226802143Y-103009048D01*
X226706905Y-103056667D01*
X226516429Y-103104286D01*
X226278333Y-103104286D01*
X226087857Y-103056667D01*
X225992619Y-103009048D01*
X225945000Y-102961429D01*
X225897381Y-102866191D01*
X226230714Y-102104286D02*
X226897381Y-102104286D01*
X226325952Y-102104286D02*
X226278333Y-102056667D01*
X226230714Y-101961429D01*
X226230714Y-101818571D01*
X226278333Y-101723333D01*
X226373571Y-101675714D01*
X226897381Y-101675714D01*
X226373571Y-100866190D02*
X226373571Y-101199524D01*
X226897381Y-101199524D02*
X225897381Y-101199524D01*
X225897381Y-100723333D01*
X131822381Y-106747381D02*
X131250952Y-106747381D01*
X131536666Y-106747381D02*
X131536666Y-105747381D01*
X131441428Y-105890238D01*
X131346190Y-105985476D01*
X131250952Y-106033095D01*
X132441428Y-105747381D02*
X132536667Y-105747381D01*
X132631905Y-105795000D01*
X132679524Y-105842619D01*
X132727143Y-105937857D01*
X132774762Y-106128333D01*
X132774762Y-106366429D01*
X132727143Y-106556905D01*
X132679524Y-106652143D01*
X132631905Y-106699762D01*
X132536667Y-106747381D01*
X132441428Y-106747381D01*
X132346190Y-106699762D01*
X132298571Y-106652143D01*
X132250952Y-106556905D01*
X132203333Y-106366429D01*
X132203333Y-106128333D01*
X132250952Y-105937857D01*
X132298571Y-105842619D01*
X132346190Y-105795000D01*
X132441428Y-105747381D01*
X133393809Y-105747381D02*
X133489048Y-105747381D01*
X133584286Y-105795000D01*
X133631905Y-105842619D01*
X133679524Y-105937857D01*
X133727143Y-106128333D01*
X133727143Y-106366429D01*
X133679524Y-106556905D01*
X133631905Y-106652143D01*
X133584286Y-106699762D01*
X133489048Y-106747381D01*
X133393809Y-106747381D01*
X133298571Y-106699762D01*
X133250952Y-106652143D01*
X133203333Y-106556905D01*
X133155714Y-106366429D01*
X133155714Y-106128333D01*
X133203333Y-105937857D01*
X133250952Y-105842619D01*
X133298571Y-105795000D01*
X133393809Y-105747381D01*
X134155714Y-106080714D02*
X134155714Y-106747381D01*
X134155714Y-106175952D02*
X134203333Y-106128333D01*
X134298571Y-106080714D01*
X134441429Y-106080714D01*
X134536667Y-106128333D01*
X134584286Y-106223571D01*
X134584286Y-106747381D01*
X135393810Y-106223571D02*
X135060476Y-106223571D01*
X135060476Y-106747381D02*
X135060476Y-105747381D01*
X135536667Y-105747381D01*
X195712381Y-101655476D02*
X195712381Y-102226905D01*
X195712381Y-101941191D02*
X194712381Y-101941191D01*
X194855238Y-102036429D01*
X194950476Y-102131667D01*
X194998095Y-102226905D01*
X194712381Y-101036429D02*
X194712381Y-100941190D01*
X194760000Y-100845952D01*
X194807619Y-100798333D01*
X194902857Y-100750714D01*
X195093333Y-100703095D01*
X195331429Y-100703095D01*
X195521905Y-100750714D01*
X195617143Y-100798333D01*
X195664762Y-100845952D01*
X195712381Y-100941190D01*
X195712381Y-101036429D01*
X195664762Y-101131667D01*
X195617143Y-101179286D01*
X195521905Y-101226905D01*
X195331429Y-101274524D01*
X195093333Y-101274524D01*
X194902857Y-101226905D01*
X194807619Y-101179286D01*
X194760000Y-101131667D01*
X194712381Y-101036429D01*
X195712381Y-100274524D02*
X194712381Y-100274524D01*
X195712381Y-99703095D02*
X195140952Y-100131667D01*
X194712381Y-99703095D02*
X195283810Y-100274524D01*
X213169762Y-114117381D02*
X213169762Y-113593571D01*
X213122143Y-113498333D01*
X213026905Y-113450714D01*
X212836428Y-113450714D01*
X212741190Y-113498333D01*
X213169762Y-114069762D02*
X213074524Y-114117381D01*
X212836428Y-114117381D01*
X212741190Y-114069762D01*
X212693571Y-113974524D01*
X212693571Y-113879286D01*
X212741190Y-113784048D01*
X212836428Y-113736429D01*
X213074524Y-113736429D01*
X213169762Y-113688810D01*
X213598333Y-114069762D02*
X213693571Y-114117381D01*
X213884047Y-114117381D01*
X213979286Y-114069762D01*
X214026905Y-113974524D01*
X214026905Y-113926905D01*
X213979286Y-113831667D01*
X213884047Y-113784048D01*
X213741190Y-113784048D01*
X213645952Y-113736429D01*
X213598333Y-113641190D01*
X213598333Y-113593571D01*
X213645952Y-113498333D01*
X213741190Y-113450714D01*
X213884047Y-113450714D01*
X213979286Y-113498333D01*
X214979286Y-114117381D02*
X214407857Y-114117381D01*
X214693571Y-114117381D02*
X214693571Y-113117381D01*
X214598333Y-113260238D01*
X214503095Y-113355476D01*
X214407857Y-113403095D01*
X215931667Y-114117381D02*
X215360238Y-114117381D01*
X215645952Y-114117381D02*
X215645952Y-113117381D01*
X215550714Y-113260238D01*
X215455476Y-113355476D01*
X215360238Y-113403095D01*
X216550714Y-113117381D02*
X216645953Y-113117381D01*
X216741191Y-113165000D01*
X216788810Y-113212619D01*
X216836429Y-113307857D01*
X216884048Y-113498333D01*
X216884048Y-113736429D01*
X216836429Y-113926905D01*
X216788810Y-114022143D01*
X216741191Y-114069762D01*
X216645953Y-114117381D01*
X216550714Y-114117381D01*
X216455476Y-114069762D01*
X216407857Y-114022143D01*
X216360238Y-113926905D01*
X216312619Y-113736429D01*
X216312619Y-113498333D01*
X216360238Y-113307857D01*
X216407857Y-113212619D01*
X216455476Y-113165000D01*
X216550714Y-113117381D01*
X217455476Y-113545952D02*
X217360238Y-113498333D01*
X217312619Y-113450714D01*
X217265000Y-113355476D01*
X217265000Y-113307857D01*
X217312619Y-113212619D01*
X217360238Y-113165000D01*
X217455476Y-113117381D01*
X217645953Y-113117381D01*
X217741191Y-113165000D01*
X217788810Y-113212619D01*
X217836429Y-113307857D01*
X217836429Y-113355476D01*
X217788810Y-113450714D01*
X217741191Y-113498333D01*
X217645953Y-113545952D01*
X217455476Y-113545952D01*
X217360238Y-113593571D01*
X217312619Y-113641190D01*
X217265000Y-113736429D01*
X217265000Y-113926905D01*
X217312619Y-114022143D01*
X217360238Y-114069762D01*
X217455476Y-114117381D01*
X217645953Y-114117381D01*
X217741191Y-114069762D01*
X217788810Y-114022143D01*
X217836429Y-113926905D01*
X217836429Y-113736429D01*
X217788810Y-113641190D01*
X217741191Y-113593571D01*
X217645953Y-113545952D01*
X166302381Y-82248333D02*
X167016667Y-82248333D01*
X167159524Y-82295953D01*
X167254762Y-82391191D01*
X167302381Y-82534048D01*
X167302381Y-82629286D01*
X166397619Y-81819762D02*
X166350000Y-81772143D01*
X166302381Y-81676905D01*
X166302381Y-81438809D01*
X166350000Y-81343571D01*
X166397619Y-81295952D01*
X166492857Y-81248333D01*
X166588095Y-81248333D01*
X166730952Y-81295952D01*
X167302381Y-81867381D01*
X167302381Y-81248333D01*
X167941667Y-73112381D02*
X167941667Y-73826667D01*
X167894047Y-73969524D01*
X167798809Y-74064762D01*
X167655952Y-74112381D01*
X167560714Y-74112381D01*
X168322619Y-73112381D02*
X168941667Y-73112381D01*
X168608333Y-73493333D01*
X168751191Y-73493333D01*
X168846429Y-73540952D01*
X168894048Y-73588571D01*
X168941667Y-73683810D01*
X168941667Y-73921905D01*
X168894048Y-74017143D01*
X168846429Y-74064762D01*
X168751191Y-74112381D01*
X168465476Y-74112381D01*
X168370238Y-74064762D01*
X168322619Y-74017143D01*
X137580952Y-83002381D02*
X137580952Y-82002381D01*
X137819047Y-82002381D01*
X137961905Y-82050000D01*
X138057143Y-82145238D01*
X138104762Y-82240476D01*
X138152381Y-82430952D01*
X138152381Y-82573810D01*
X138104762Y-82764286D01*
X138057143Y-82859524D01*
X137961905Y-82954762D01*
X137819047Y-83002381D01*
X137580952Y-83002381D01*
X138580952Y-83002381D02*
X138580952Y-82002381D01*
X138580952Y-82478571D02*
X139152381Y-82478571D01*
X139152381Y-83002381D02*
X139152381Y-82002381D01*
X139485714Y-82002381D02*
X140057143Y-82002381D01*
X139771428Y-83002381D02*
X139771428Y-82002381D01*
X140914286Y-83002381D02*
X140342857Y-83002381D01*
X140628571Y-83002381D02*
X140628571Y-82002381D01*
X140533333Y-82145238D01*
X140438095Y-82240476D01*
X140342857Y-82288095D01*
X141866667Y-83002381D02*
X141295238Y-83002381D01*
X141580952Y-83002381D02*
X141580952Y-82002381D01*
X141485714Y-82145238D01*
X141390476Y-82240476D01*
X141295238Y-82288095D01*
X137033095Y-85812381D02*
X137033095Y-86621905D01*
X137080714Y-86717143D01*
X137128333Y-86764762D01*
X137223571Y-86812381D01*
X137414048Y-86812381D01*
X137509286Y-86764762D01*
X137556905Y-86717143D01*
X137604524Y-86621905D01*
X137604524Y-85812381D01*
X138604524Y-86812381D02*
X138033095Y-86812381D01*
X138318809Y-86812381D02*
X138318809Y-85812381D01*
X138223571Y-85955238D01*
X138128333Y-86050476D01*
X138033095Y-86098095D01*
M02*
